P3
57 17
255
255 200 100 255 200 100 255 200 100 255 200 100 255 200 100 255 200 100 255 200 100 255 200 100 255 200 100 255 200 100 255 200 100 255 200 100 255 200 100 255 200 100 255 200 100 255 200 100 255 200 100 255 200 100 255 200 100 255 200 100 255 200 100 255 200 100 255 200 100 255 200 100 255 200 100 255 200 100 255 200 100 255 200 100 255 200 100 255 200 100 255 200 100 255 200 100 255 200 100 255 200 100 255 200 100 255 200 100 255 200 100 255 200 100 255 200 100 255 200 100 255 200 100 255 200 100 255 200 100 255 200 100 255 200 100 255 200 100 255 200 100 255 200 100 255 200 100 255 200 100 255 200 100 255 200 100 255 200 100 255 200 100 255 200 100 255 200 100 255 200 100 
255 200 100 255 200 100 255 200 100 255 200 100 255 200 100 255 200 100 255 200 100 255 200 100 255 200 100 255 200 100 255 200 100 255 200 100 255 200 100 255 200 100 255 200 100 255 200 100 255 200 100 255 200 100 255 200 100 255 200 100 255 200 100 255 200 100 255 200 100 255 200 100 255 200 100 255 200 100 255 200 100 255 200 100 255 200 100 255 200 100 255 200 100 255 200 100 255 200 100 255 200 100 255 200 100 255 200 100 255 200 100 255 200 100 255 200 100 255 200 100 255 200 100 255 200 100 255 200 100 255 200 100 255 200 100 255 200 100 255 200 100 255 200 100 255 200 100 255 200 100 255 200 100 255 200 100 255 200 100 255 200 100 255 200 100 255 200 100 255 200 100 
255 200 100 255 200 100 255 200 100 255 200 100 255 200 100 255 200 100 255 200 100 255 200 100 255 200 100 255 200 100 255 200 100 255 200 100 255 200 100 255 200 100 255 200 100 255 200 100 255 200 100 255 200 100 255 200 100 255 200 100 255 200 100 255 200 100 255 200 100 255 200 100 255 200 100 255 200 100 255 200 100 255 200 100 255 200 100 255 200 100 255 200 100 255 200 100 255 200 100 255 200 100 255 200 100 255 200 100 255 200 100 255 200 100 255 200 100 255 200 100 255 200 100 255 200 100 255 200 100 255 200 100 255 200 100 255 200 100 255 200 100 255 200 100 255 200 100 255 200 100 255 200 100 255 200 100 255 200 100 255 200 100 255 200 100 255 200 100 255 200 100 
255 200 100 255 200 100 255 200 100 255 200 100 255 200 100 255 200 100 255 200 100 255 200 100 255 200 100 255 200 100 255 200 100 255 200 100 255 200 100 255 200 100 255 255 100 255 255 100 255 255 100 255 255 100 255 255 100 255 200 100 255 200 100 255 200 100 255 200 100 255 200 100 255 255 100 255 255 100 255 255 100 255 255 100 255 255 100 255 200 100 255 200 100 255 200 100 255 200 100 255 200 100 255 200 100 255 255 100 255 200 100 255 200 100 255 200 100 255 200 100 255 200 100 255 200 100 255 200 255 255 200 100 255 200 100 255 200 100 255 200 100 255 200 100 255 200 228 255 200 228 255 200 228 255 200 228 255 200 228 255 200 100 255 200 100 255 200 100 255 200 100 
255 200 100 255 200 100 255 200 100 255 200 100 255 200 100 255 200 100 255 200 100 255 200 100 255 200 100 255 200 100 255 200 100 255 200 100 255 200 100 255 255 100 255 200 100 255 200 100 255 200 100 255 200 100 255 200 100 255 255 100 255 200 100 255 200 100 255 200 100 255 255 100 255 200 100 255 200 100 255 200 100 255 200 100 255 200 100 255 255 100 255 200 100 255 200 100 255 200 100 255 200 100 255 255 100 255 255 100 255 200 100 255 200 100 255 200 100 255 200 100 255 200 100 255 200 255 255 200 255 255 200 100 255 200 100 255 200 100 255 200 100 255 200 228 255 200 100 255 200 100 255 200 100 255 200 100 255 200 100 255 200 228 255 200 100 255 200 100 255 200 100 
255 200 100 255 200 100 255 200 100 255 200 100 255 200 100 255 200 100 255 200 100 255 200 100 255 200 100 255 200 100 255 200 100 255 200 100 255 200 100 255 255 100 255 200 100 255 200 100 255 200 100 255 200 100 255 200 100 255 255 100 255 200 100 255 200 100 255 200 100 255 255 100 255 200 100 255 200 100 255 200 100 255 200 100 255 200 100 255 255 100 255 200 100 255 200 100 255 200 100 255 255 100 255 200 100 255 255 100 255 200 100 255 200 100 255 200 100 255 200 100 255 200 255 255 200 100 255 200 255 255 200 100 255 200 100 255 200 100 255 200 100 255 200 228 255 200 100 255 200 100 255 200 100 255 200 100 255 200 100 255 200 228 255 200 100 255 200 100 255 200 100 
255 200 100 255 200 100 255 200 100 255 200 100 255 200 100 255 200 100 255 200 100 255 200 100 255 200 100 255 200 100 255 200 100 255 200 100 255 200 100 255 255 100 255 200 100 255 200 100 255 200 100 255 200 100 255 200 100 255 200 100 255 200 100 255 200 100 255 200 100 255 255 100 255 200 100 255 200 100 255 200 100 255 200 100 255 200 100 255 200 100 255 200 100 255 200 100 255 200 100 255 200 100 255 200 100 255 255 100 255 200 100 255 200 100 255 200 100 255 200 100 255 200 100 255 200 100 255 200 255 255 200 100 255 200 100 255 200 100 255 200 100 255 200 228 255 200 100 255 200 100 255 200 100 255 200 100 255 200 100 255 200 100 255 200 100 255 200 100 255 200 100 
255 200 100 255 200 100 255 200 100 255 200 100 255 200 100 255 200 100 255 200 100 255 200 100 255 200 100 255 200 100 255 200 100 255 200 100 255 200 100 255 255 100 255 200 100 255 200 100 255 200 100 255 200 100 255 200 100 255 200 100 255 200 100 255 200 100 255 200 100 255 255 100 255 200 100 255 200 100 255 200 100 255 200 100 255 200 100 255 200 100 255 200 100 255 200 100 255 200 100 255 200 100 255 200 100 255 255 100 255 200 100 255 200 100 255 200 100 255 200 100 255 200 100 255 200 100 255 200 255 255 200 100 255 200 100 255 200 100 255 200 100 255 200 228 255 200 100 255 200 100 255 200 100 255 200 100 255 200 100 255 200 100 255 200 100 255 200 100 255 200 100 
255 200 100 255 200 100 255 200 100 255 200 100 255 200 100 255 200 100 255 200 100 255 200 100 255 200 100 255 200 100 255 200 100 255 200 100 255 200 100 255 200 100 255 255 100 255 255 100 255 255 100 255 255 100 255 255 100 255 200 100 255 200 100 255 200 100 255 200 100 255 255 100 255 200 100 255 200 100 255 200 100 255 200 100 255 200 100 255 200 100 255 200 100 255 200 100 255 200 100 255 200 100 255 200 100 255 255 100 255 200 100 255 200 100 255 200 100 255 200 100 255 200 100 255 200 100 255 200 255 255 200 100 255 200 100 255 200 100 255 200 100 255 200 228 255 200 228 255 200 228 255 200 228 255 200 228 255 200 100 255 200 100 255 200 100 255 200 100 255 200 100 
255 200 100 255 200 100 255 200 100 255 200 100 255 200 100 255 200 100 255 200 100 255 200 100 255 200 100 255 200 100 255 200 100 255 200 100 255 200 100 255 200 100 255 200 100 255 200 100 255 200 100 255 200 100 255 200 100 255 255 100 255 200 100 255 200 100 255 200 100 255 255 100 255 200 100 255 200 100 255 200 100 255 200 100 255 200 100 255 200 100 255 200 100 255 200 100 255 200 100 255 200 100 255 200 100 255 255 100 255 200 100 255 200 100 255 200 100 255 200 100 255 200 100 255 200 100 255 200 255 255 200 100 255 200 100 255 200 100 255 200 100 255 200 228 255 200 100 255 200 100 255 200 100 255 200 100 255 200 228 255 200 100 255 200 100 255 200 100 255 200 100 
255 200 100 255 200 100 255 200 100 255 200 100 255 200 100 255 200 100 255 200 100 255 200 100 255 200 100 255 200 100 255 200 100 255 200 100 255 200 100 255 200 100 255 200 100 255 200 100 255 200 100 255 200 100 255 200 100 255 255 100 255 200 100 255 200 100 255 200 100 255 255 100 255 200 100 255 200 100 255 200 100 255 200 100 255 200 100 255 200 100 255 200 100 255 200 100 255 200 100 255 200 100 255 200 100 255 255 100 255 200 100 255 200 100 255 200 100 255 200 100 255 200 100 255 200 100 255 200 255 255 200 100 255 200 100 255 200 100 255 200 100 255 200 228 255 200 100 255 200 100 255 200 100 255 200 100 255 200 100 255 200 228 255 200 100 255 200 100 255 200 100 
255 200 100 255 200 100 255 200 100 255 200 100 255 200 100 255 200 100 255 200 100 255 200 100 255 200 100 255 200 100 255 200 100 255 200 100 255 200 100 255 255 100 255 200 100 255 200 100 255 200 100 255 200 100 255 200 100 255 255 100 255 200 100 255 200 100 255 200 100 255 255 100 255 200 100 255 200 100 255 200 100 255 200 100 255 200 100 255 255 100 255 200 100 255 200 100 255 200 100 255 200 100 255 200 100 255 255 100 255 200 100 255 200 100 255 200 100 255 200 100 255 200 100 255 200 100 255 200 255 255 200 100 255 200 100 255 200 100 255 200 100 255 200 228 255 200 100 255 200 100 255 200 100 255 200 100 255 200 100 255 200 228 255 200 100 255 200 100 255 200 100 
255 200 100 255 200 100 255 200 100 255 200 100 255 200 100 255 200 100 255 200 100 255 200 100 255 200 100 255 200 100 255 200 100 255 200 100 255 200 100 255 255 100 255 200 100 255 200 100 255 200 100 255 200 100 255 200 100 255 255 100 255 200 100 255 200 100 255 200 100 255 255 100 255 200 100 255 200 100 255 200 100 255 200 100 255 200 100 255 255 100 255 200 100 255 200 100 255 200 100 255 200 100 255 200 100 255 255 100 255 200 100 255 200 100 255 200 100 255 200 100 255 200 100 255 200 100 255 200 255 255 200 100 255 200 100 255 200 100 255 200 100 255 200 228 255 200 100 255 200 100 255 200 100 255 200 100 255 200 100 255 200 228 255 200 100 255 200 100 255 200 100 
255 200 100 255 200 100 255 200 100 255 200 100 255 200 100 255 200 100 255 200 100 255 200 100 255 200 100 255 200 100 255 200 100 255 200 100 255 200 100 255 200 100 255 255 100 255 255 100 255 255 100 255 255 100 255 255 100 255 200 100 255 200 100 255 200 100 255 200 100 255 200 100 255 255 100 255 255 100 255 255 100 255 255 100 255 255 100 255 200 100 255 200 100 255 200 100 255 200 100 255 200 100 255 255 100 255 255 100 255 255 100 255 200 100 255 200 100 255 200 100 255 200 100 255 200 255 255 200 255 255 200 255 255 200 100 255 200 100 255 200 100 255 200 100 255 200 228 255 200 228 255 200 228 255 200 228 255 200 228 255 200 228 255 200 100 255 200 100 255 200 100 
255 200 100 255 200 100 255 200 100 255 200 100 255 200 100 255 200 100 255 200 100 255 200 100 255 200 100 255 200 100 255 200 100 255 200 100 255 200 100 255 200 100 255 200 100 255 200 100 255 200 100 255 200 100 255 200 100 255 200 100 255 200 100 255 200 100 255 200 100 255 200 100 255 200 100 255 200 100 255 200 100 255 200 100 255 200 100 255 200 100 255 200 100 255 200 100 255 200 100 255 200 100 255 200 100 255 200 100 255 200 100 255 200 100 255 200 100 255 200 100 255 200 100 255 200 100 255 200 100 255 200 100 255 200 100 255 200 100 255 200 100 255 200 100 255 200 100 255 200 100 255 200 100 255 200 100 255 200 100 255 200 100 255 200 100 255 200 100 255 200 100 
255 200 100 255 200 100 255 200 100 255 200 100 255 200 100 255 200 100 255 200 100 255 200 100 255 200 100 255 200 100 255 200 100 255 200 100 255 200 100 255 200 100 255 200 100 255 200 100 255 200 100 255 200 100 255 200 100 255 200 100 255 200 100 255 200 100 255 200 100 255 200 100 255 200 100 255 200 100 255 200 100 255 200 100 255 200 100 255 200 100 255 200 100 255 200 100 255 200 100 255 200 100 255 200 100 255 200 100 255 200 100 255 200 100 255 200 100 255 200 100 255 200 100 255 200 100 255 200 100 255 200 100 255 200 100 255 200 100 255 200 100 255 200 100 255 200 100 255 200 100 255 200 100 255 200 100 255 200 100 255 200 100 255 200 100 255 200 100 255 200 100 
255 200 100 255 200 100 255 200 100 255 200 100 255 200 100 255 200 100 255 200 100 255 200 100 255 200 100 255 200 100 255 200 100 255 200 100 255 200 100 255 200 100 255 200 100 255 200 100 255 200 100 255 200 100 255 200 100 255 200 100 255 200 100 255 200 100 255 200 100 255 200 100 255 200 100 255 200 100 255 200 100 255 200 100 255 200 100 255 200 100 255 200 100 255 200 100 255 200 100 255 200 100 255 200 100 255 200 100 255 200 100 255 200 100 255 200 100 255 200 100 255 200 100 255 200 100 255 200 100 255 200 100 255 200 100 255 200 100 255 200 100 255 200 100 255 200 100 255 200 100 255 200 100 255 200 100 255 200 100 255 200 100 255 200 100 255 200 100 255 200 100 
